<svg xmlns="http://www.w3.org/2000/svg" version="1.1" xmlns:xlink="http://www.w3.org/1999/xlink" width="100" height="100" x="0" y="0" viewBox="0 0 512 512" style="enable-background:new 0 0 512 512" xml:space="preserve" class=""><g transform="matrix(1.05,0,0,1.05,-12.800046825408913,-12.799952220916737)"><g fill-rule="evenodd" clip-rule="evenodd"><path fill="#c6ea94" d="M264.21 48.27c88.784-36.706 169.945 21.394 208.344 103.488.246.526.657.886 1.211 1.06s1.097.115 1.6-.176l16.957-9.79a1.96 1.96 0 0 1 2.141.09 1.96 1.96 0 0 1 .831 1.975l-10.884 64.528a1.939 1.939 0 0 1-.972 1.399 1.936 1.936 0 0 1-1.698.142l-61.325-22.839c-.743-.277-1.229-.917-1.295-1.707s.306-1.502.993-1.899l20.286-11.712a1.994 1.994 0 0 0 .814-2.573c-31.219-67.331-98.053-114.785-176.324-118.14a1.98 1.98 0 0 1-1.886-1.659 1.983 1.983 0 0 1 1.207-2.187z" opacity="1" data-original="#c6ea94"></path><path fill="#f76c82" d="M48.27 247.79C11.565 159.006 69.664 77.845 151.758 39.446c.526-.246.886-.657 1.06-1.211s.115-1.097-.176-1.6l-9.79-16.957a1.959 1.959 0 0 1 .09-2.141 1.96 1.96 0 0 1 1.975-.831l64.528 10.884a1.939 1.939 0 0 1 1.399.972c.309.535.358 1.12.142 1.698l-22.839 61.325c-.277.743-.917 1.229-1.707 1.295s-1.502-.306-1.899-.993L172.83 71.601a1.993 1.993 0 0 0-2.573-.814C102.926 102.006 55.472 168.84 52.118 247.111a1.983 1.983 0 0 1-1.659 1.886 1.984 1.984 0 0 1-2.189-1.207z" opacity="1" data-original="#f76c82" class=""></path><path fill="#c6ea94" d="M247.79 463.73c-88.784 36.706-169.945-21.394-208.344-103.487-.246-.526-.657-.886-1.211-1.06s-1.097-.115-1.6.176l-16.957 9.79c-.686.396-1.49.363-2.141-.09s-.963-1.193-.831-1.975l10.884-64.528a1.939 1.939 0 0 1 .972-1.399 1.936 1.936 0 0 1 1.698-.142l61.325 22.838c.743.277 1.229.917 1.295 1.707s-.306 1.502-.993 1.899L71.601 339.17a1.993 1.993 0 0 0-.814 2.573c31.219 67.331 98.053 114.784 176.324 118.139.951.04 1.726.721 1.886 1.659a1.984 1.984 0 0 1-1.207 2.189z" opacity="1" data-original="#c6ea94"></path><path fill="#f76c82" d="M463.73 264.21c36.706 88.784-21.394 169.945-103.487 208.344-.526.246-.886.657-1.06 1.211s-.115 1.097.176 1.6l9.79 16.957c.397.687.363 1.49-.09 2.141s-1.193.963-1.975.831l-64.528-10.884a1.939 1.939 0 0 1-1.399-.972 1.936 1.936 0 0 1-.142-1.698l22.838-61.325c.277-.743.917-1.229 1.707-1.295s1.502.306 1.899.993l11.712 20.286a1.994 1.994 0 0 0 2.573.814c67.331-31.219 114.784-98.053 118.139-176.324a1.982 1.982 0 0 1 1.659-1.886 1.984 1.984 0 0 1 2.188 1.207z" opacity="1" data-original="#f76c82" class=""></path><path fill="#4fc0e8" d="M198.101 135.185h34.939v42.262h-34.939z" opacity="1" data-original="#4fc0e8" class=""></path><path fill="#38a8d2" d="M194.622 124.26h41.896a3.986 3.986 0 0 1 3.979 3.979v13.89a3.987 3.987 0 0 1-3.979 3.979h-41.896a3.987 3.987 0 0 1-3.979-3.979v-13.89a3.987 3.987 0 0 1 3.979-3.979z" opacity="1" data-original="#38a8d2"></path><path fill="#4fc0e8" d="M261.145 166.568h62.285c15.663 0 28.437 12.775 28.437 28.438v73.137h-18.2v-73.137c0-5.617-4.621-10.238-10.238-10.238h-62.285v-18.2z" opacity="1" data-original="#4fc0e8" class=""></path><path fill="#4fc0e8" d="M188.57 166.568h77.982l85.315 96.69v96.044c0 15.66-12.777 28.437-28.437 28.437H188.57c-15.663 0-28.438-12.775-28.438-28.437V195.006c.001-15.663 12.775-28.438 28.438-28.438z" opacity="1" data-original="#4fc0e8" class=""></path><path fill="#38a8d2" d="m290.366 193.556 12.353 14H160.133v-12.55c0-.486.012-.969.037-1.449h130.196zm61.501 153.196v12.55c0 .486-.012.969-.037 1.449H160.17c-.024-.48-.037-.963-.037-1.449v-12.55z" opacity="1" data-original="#38a8d2"></path><path fill="#ffc518" d="M254.326 244.796c-10.84 18.404-31.619 44.19-14.963 60.846 9.172 9.172 24.181 9.172 33.353 0 16.751-16.751-4.901-44.07-14.952-60.858a1.952 1.952 0 0 0-1.723-.972 1.95 1.95 0 0 0-1.715.984z" opacity="1" data-original="#fdcd56" class=""></path></g></g></svg>