<svg xmlns="http://www.w3.org/2000/svg" version="1.1" xmlns:xlink="http://www.w3.org/1999/xlink" width="100" height="100" x="0" y="0" viewBox="0 0 512 512" style="enable-background:new 0 0 512 512" xml:space="preserve" class=""><g><g fill-rule="evenodd" clip-rule="evenodd"><path fill="#667281" d="m367.783 149.83 62.996 6.637c1.704.179 3.088 1.113 3.892 2.627s.803 3.183-.003 4.696l-12.119 22.754a4.968 4.968 0 0 0 1.359 6.309l14.237 10.983c1.723 1.329 2.38 3.507 1.68 5.567s-2.548 3.387-4.723 3.391l-26.294.054-.058-.397-.519.973c10.115 24.192 15.706 50.746 15.706 78.607 0 61.366-27.383 118.88-74.468 157.586-1.348 1.108-1.99 2.69-1.794 4.423s1.173 3.131 2.733 3.911c6.601 3.297 11.162 10.129 11.162 17.974 0 11.041-9.034 20.075-20.075 20.075H98.441c-11.041 0-20.074-9.034-20.074-20.075 0-7.845 4.561-14.677 11.161-17.974 1.56-.78 2.538-2.178 2.734-3.911.196-1.734-.446-3.315-1.794-4.423C43.383 410.91 16 353.397 16 292.031c0-112.649 91.32-203.969 203.969-203.969 26.037 0 50.93 4.887 73.823 13.782 1.585.616 3.226.427 4.63-.531s2.177-2.419 2.18-4.118l.039-18.861c.005-2.176 1.331-4.024 3.391-4.724s4.237-.043 5.567 1.68l10.836 14.046a4.969 4.969 0 0 0 6.309 1.359l22.717-12.099c1.514-.806 3.184-.807 4.698-.001 1.514.805 2.447 2.191 2.625 3.897l6.549 62.885a4.958 4.958 0 0 0 4.45 4.453z" opacity="1" data-original="#636c77" class=""></path><path fill="#7c889a" d="M416.089 235.825a202.652 202.652 0 0 1 4.5 19.215l-9.238 14.873a6.988 6.988 0 1 1-11.867-7.383l16.357-26.335c.08-.127.163-.25.248-.37zm7.822 52.934a205.618 205.618 0 0 1-.637 19.741l-12.494 11.714a6.983 6.983 0 1 1-9.57-10.172l22.616-21.205zm-6.116 53.058a203.436 203.436 0 0 1-5.725 18.881l-14.894 7.971a6.973 6.973 0 0 1-6.563-12.305zm-19.651 49.57a203.524 203.524 0 0 1-10.483 16.809l-16.134 3.771a6.991 6.991 0 1 1-3.172-13.618zm-31.86 42.764a205.259 205.259 0 0 1-14.452 13.494l-16.284-.524a6.976 6.976 0 0 1 .437-13.945zm-287.599 4.992a204.984 204.984 0 0 1-13.5-14.26l.529-16.437a6.977 6.977 0 0 1 13.946.437zm-33.108-41.267a203.064 203.064 0 0 1-9.389-17.288l4.848-16.013a6.998 6.998 0 0 1 13.398 4.047zm-21.381-48.501a203.825 203.825 0 0 1-4.594-19.092l8.984-14.465a6.988 6.988 0 1 1 11.867 7.383zm-8.133-52.436a205.536 205.536 0 0 1-.063-4.908c0-4.935.185-9.827.53-14.674l12.628-11.84a6.983 6.983 0 1 1 9.57 10.172l-22.616 21.205zm5.601-52.78a202.424 202.424 0 0 1 5.47-18.733l15.627-8.364a6.973 6.973 0 0 1 6.563 12.305L21.99 243.996a6.602 6.602 0 0 1-.326.163zm19.095-49.605a204.137 204.137 0 0 1 10.172-16.705l17.479-4.085a6.991 6.991 0 1 1 3.172 13.618l-30.188 7.055a7.005 7.005 0 0 1-.635.117zm31.395-43.069a205.152 205.152 0 0 1 14.078-13.459l18.158.585a6.976 6.976 0 1 1-.438 13.945l-30.986-.998a6.767 6.767 0 0 1-.812-.073zm41.428-33.506a203.81 203.81 0 0 1 17.089-9.372l17.588 5.325a6.998 6.998 0 1 1-4.047 13.398l-29.672-8.984a6.922 6.922 0 0 1-.958-.367zm48.805-21.661a203.046 203.046 0 0 1 18.935-4.583l15.695 9.748a6.988 6.988 0 1 1-7.383 11.867l-26.336-16.357a7.09 7.09 0 0 1-.911-.675zm52.845-8.196a207.17 207.17 0 0 1 4.737-.06c4.95 0 9.859.177 14.721.524l12.628 13.468a6.983 6.983 0 1 1-10.172 9.57L215.94 89.009a7.113 7.113 0 0 1-.708-.887zm53.157 5.729a202.793 202.793 0 0 1 18.661 5.51l8.722 16.297a6.973 6.973 0 0 1-12.305 6.563l-14.628-27.333a6.934 6.934 0 0 1-.45-1.037z" opacity="1" data-original="#424852" class=""></path><circle cx="219.969" cy="292.031" r="127.661" fill="#ffc518" transform="rotate(-45 219.932 292.092)" opacity="1" data-original="#cad0d7" class=""></circle><circle cx="219.969" cy="292.031" r="95.048" fill="#e4e8eb" transform="rotate(-3.15 221.215 293.594)" opacity="1" data-original="#e4e8eb" class=""></circle><path fill="#7c889a" d="M246.431 200.72c21.516 6.225 39.892 19.845 52.19 37.933l-19.986 8.143c-6.731 2.742-15.277 1.14-22.707-4.258-7.429-5.398-11.594-13.03-11.067-20.279zm68.532 88.267c.032 1.011.054 2.025.054 3.044 0 21.974-7.46 42.205-19.982 58.302l-13.916-16.487c-4.688-5.554-5.805-14.177-2.967-22.911 2.838-8.733 8.81-15.053 15.867-16.791zm-62.73 92.471c-10.074 3.635-20.937 5.621-32.264 5.621s-22.19-1.985-32.264-5.621l11.391-18.348c3.834-6.175 11.69-9.902 20.873-9.902s17.039 3.727 20.873 9.902zm-107.33-31.125c-12.521-16.098-19.982-36.328-19.982-58.302 0-1.019.021-2.033.053-3.044l20.945 5.157c7.057 1.738 13.029 8.058 15.867 16.791 2.838 8.734 1.721 17.357-2.967 22.911zm-3.586-111.68c12.298-18.087 30.674-31.708 52.19-37.933l1.569 21.538c.528 7.249-3.637 14.881-11.066 20.279-7.43 5.398-15.976 7-22.707 4.258z" opacity="1" data-original="#424852" class=""></path><circle cx="219.969" cy="292.031" r="24.939" fill="#667281" transform="rotate(-13.34 219.43 291.89)" opacity="1" data-original="#636c77" class=""></circle><path fill="#e4e8eb" d="M448.074 24.223c.179.179.355.36.528.543 10.763-6.341 24.846-4.891 34.089 4.352 9.245 9.245 10.694 23.335 4.347 34.099.249.232.496.467.739.71 10.964 10.964 10.964 28.74 0 39.703-10.964 10.964-28.739 10.964-39.703 0a28 28 0 0 1-5.717-8.239l-47.024 25.243a1.974 1.974 0 0 1-2.36-.348 1.976 1.976 0 0 1-.348-2.36l25.564-47.623a27.989 27.989 0 0 1-9.819-6.376c-10.964-10.964-10.964-28.739 0-39.703 10.964-10.965 28.74-10.965 39.704-.001z" opacity="1" data-original="#e4e8eb" class=""></path></g></g></svg>