<svg xmlns="http://www.w3.org/2000/svg" version="1.1" xmlns:xlink="http://www.w3.org/1999/xlink" width="100" height="100" x="0" y="0" viewBox="0 0 512 512" style="enable-background:new 0 0 512 512" xml:space="preserve" class=""><g><g fill-rule="evenodd" clip-rule="evenodd"><path fill="#636c77" d="M12.5 114.546a7 7 0 1 1 14 0v63.41h81.228a7 7 0 1 1 0 14H26.5v63.411a7 7 0 1 1-14 0zM229.407 12.549c17.227-.218 34.611 0 51.856 0a7 7 0 1 1 0 14h-44.811v73.916a7 7 0 1 1-14 0V26.548H177.64a7 7 0 1 1 0-14h51.767z" opacity="1" data-original="#636c77"></path><path fill="#a9b0bb" d="M344.263 109.95h60.385c7.145 0 12.972 5.829 12.972 12.972v14.757c0 7.143 5.827 12.972 12.972 12.972h8.357c7.145 0 12.972-5.827 12.972-12.972 0-6.166 1.658-11.021 7.789-13.693 4.835-2.107 10.149-1.201 14.013 2.388l21.635 20.102c2.739 2.545 4.142 5.764 4.142 9.503v76.288c0 3.722-1.39 6.927-4.107 9.471l-21.635 20.253c-3.857 3.61-9.179 4.533-14.026 2.43-4.847-2.102-7.811-6.617-7.811-11.901 0-7.924-4.395-14.621-12.972-14.621h-8.357c-7.143 0-12.972 5.829-12.972 12.972v44.408c0 7.143-5.829 12.972-12.972 12.972H168.86c-4.761 0-8.853-2.361-11.234-6.486L144.367 278.8c-2.381-4.125-6.472-6.486-11.234-6.486h-46.71c-7.142 0-12.972-5.827-12.972-12.972V110.571c0-7.145 5.827-12.972 12.972-12.972h23.607c5.122 0 9.507-2.768 11.71-7.391l6.251-13.115c2.204-4.624 6.589-7.391 11.71-7.391h157.762c5.122 0 8.247 3.619 11.71 7.391l23.379 25.466c3.464 3.772 6.589 7.391 11.711 7.391z" opacity="1" data-original="#a9b0bb" class=""></path><path fill="#ffc518" d="M264.889 114.836 249.8 159.743c-.213.632-.115 1.271.277 1.811s.968.831 1.635.826c16.256-.129 28.778-1.341 44.832-1.528.788-.009 1.467.407 1.816 1.113s.268 1.499-.218 2.119l-72.627 92.788c-.603.771-1.65.992-2.514.533s-1.265-1.451-.964-2.382l18.087-55.844a1.948 1.948 0 0 0-.285-1.793 1.945 1.945 0 0 0-1.618-.823h-45.217a1.942 1.942 0 0 1-1.591-.788 1.944 1.944 0 0 1-.337-1.744l22.176-80.363a1.977 1.977 0 0 1 1.928-1.468h47.812c.665 0 1.236.293 1.624.833a1.94 1.94 0 0 1 .273 1.803z" opacity="1" data-original="#fdcd56" class=""></path><path fill="#cad0d7" d="m270.2 366.431 10.662 8.678c1.187.966 2.597 1.321 4.1 1.032l32.857-6.314a4.963 4.963 0 0 0 4.056-4.91V348.8a4.963 4.963 0 0 0-4.056-4.91l-32.857-6.314c-1.503-.289-2.913.066-4.1 1.032l-10.662 8.679a4.811 4.811 0 0 1-3.156 1.122H107.498a5.01 5.01 0 0 0-5 5v6.899c0 2.754 2.246 5 5 5h159.546a4.817 4.817 0 0 1 3.156 1.123z" opacity="1" data-original="#cad0d7"></path><path fill="#636c77" d="M160.293 379.643H42.284c-12.529 0-22.784-10.252-22.784-22.784 0-12.531 10.253-22.784 22.784-22.784h118.009a5.009 5.009 0 0 1 4.999 5v35.568a5.008 5.008 0 0 1-4.999 5z" opacity="1" data-original="#636c77"></path><path fill="#cad0d7" d="m446.554 449.26 15.328-17.955c.984-1.152 2.288-1.754 3.802-1.754h24.146c2.015 0 3.738-1.116 4.562-2.954.824-1.839.511-3.867-.829-5.371-8.615-9.67-21.161-15.762-35.132-15.762-18.561 0-34.609 10.751-42.262 26.364-.86 1.755-2.534 2.799-4.489 2.799H284.949c-1.955 0-3.629-1.044-4.489-2.799-7.654-15.613-23.701-26.364-42.262-26.364-13.97 0-26.517 6.091-35.132 15.762-1.34 1.504-1.653 3.533-.829 5.371.824 1.839 2.548 2.954 4.562 2.954h24.146c1.515 0 2.819.601 3.802 1.754l15.328 17.955a4.97 4.97 0 0 1 0 6.493l-15.328 17.955c-.984 1.152-2.288 1.754-3.802 1.754h-24.146c-2.015 0-3.738 1.116-4.562 2.954s-.511 3.867.829 5.371c8.615 9.671 21.161 15.762 35.132 15.762 18.561 0 34.609-10.751 42.262-26.364.86-1.755 2.535-2.799 4.489-2.799H411.68c1.955 0 3.629 1.044 4.489 2.799 7.654 15.613 23.701 26.364 42.262 26.364 13.971 0 26.517-6.091 35.132-15.762 1.34-1.504 1.653-3.533.829-5.371-.824-1.839-2.547-2.954-4.562-2.954h-24.146c-1.515 0-2.819-.601-3.802-1.754l-15.328-17.955a4.97 4.97 0 0 1 0-6.493z" opacity="1" data-original="#cad0d7"></path></g></g></svg>