<svg xmlns="http://www.w3.org/2000/svg" version="1.1" xmlns:xlink="http://www.w3.org/1999/xlink" width="100" height="100" x="0" y="0" viewBox="0 0 512 512" style="enable-background:new 0 0 512 512" xml:space="preserve" class=""><g><g fill-rule="evenodd" clip-rule="evenodd"><path fill="#cad0d7" d="m410.323 368.833 26.841-31.439c.984-1.152 2.287-1.754 3.802-1.754h45.855c1.936 0 3.595-1.022 4.466-2.752.87-1.729.704-3.67-.448-5.225-13.605-18.359-35.427-30.261-60.032-30.261-30.072 0-55.987 17.776-67.823 43.393-.837 1.811-2.543 2.903-4.538 2.903H153.554c-1.995 0-3.701-1.092-4.538-2.903-11.836-25.616-37.751-43.393-67.823-43.393-24.605 0-46.427 11.902-60.032 30.261-1.153 1.555-1.319 3.496-.448 5.225s2.53 2.752 4.466 2.752h45.855c1.515 0 2.819.601 3.802 1.754l26.841 31.439a4.969 4.969 0 0 1 0 6.492l-26.841 31.439c-.984 1.152-2.288 1.754-3.802 1.754H25.178c-1.936 0-3.595 1.022-4.466 2.752-.87 1.729-.704 3.67.448 5.225 13.605 18.359 35.427 30.261 60.032 30.261 30.072 0 55.987-17.776 67.823-43.393.837-1.811 2.543-2.903 4.538-2.903h204.892c1.995 0 3.701 1.092 4.538 2.903 11.836 25.616 37.751 43.393 67.823 43.393 24.605 0 46.427-11.902 60.032-30.261 1.153-1.555 1.319-3.496.448-5.225s-2.53-2.752-4.466-2.752h-45.855c-1.515 0-2.819-.601-3.802-1.754l-26.841-31.439a4.973 4.973 0 0 1 .001-6.492z" opacity="1" data-original="#cad0d7"></path><path fill="#f76c82" d="M25.231 219.509h382.222l79.316-10.186c5.041-.647 9.231-4.878 9.231-10.856v-63.622c0-12.874-9.495-17.522-17.654-18.129l-48.625-4.196-40.288-43.138c-2.415-2.586-5.315-4.139-8.853-4.139H222.672c-2.617 0-4.989.603-6.953 2.331l-60.11 52.89-114.447 10.829C27.384 132.596 16 148.674 16 164.948v43.704c0 5.978 4.148 10.857 9.231 10.857z" opacity="1" data-original="#f76c82" class=""></path><path fill="#636c77" d="M101.425 253.763c25.222 0 45.793-20.571 45.793-45.793s-20.571-45.793-45.793-45.793-45.793 20.571-45.793 45.793 20.571 45.793 45.793 45.793z" opacity="1" data-original="#636c77"></path><circle cx="101.425" cy="207.97" r="15.973" fill="#e4e8eb" transform="rotate(-5.73 100.712 207.097)" opacity="1" data-original="#e4e8eb"></circle><circle cx="407.453" cy="207.97" r="45.793" fill="#636c77" transform="rotate(-20 407.686 208.597)" opacity="1" data-original="#636c77"></circle><path fill="#e4e8eb" d="M407.453 223.943c8.798 0 15.973-7.176 15.973-15.973s-7.176-15.973-15.973-15.973c-8.798 0-15.974 7.175-15.974 15.973s7.176 15.973 15.974 15.973z" opacity="1" data-original="#e4e8eb"></path><path fill="#a4d4ff" d="m202.415 79.28-46.791 41.171 116.645-.156a5.01 5.01 0 0 0 4.993-5V84.187c0-1.378-.491-2.564-1.467-3.538-.975-.974-2.162-1.464-3.54-1.462zm93.854 40.982 85.562-.114c4.751 0 8.16-4.741 6.617-9.242l-9.803-28.482c-.708-2.057-2.559-3.376-4.734-3.373l-77.655.104a5.01 5.01 0 0 0-4.993 5v31.109c0 1.378.492 2.564 1.467 3.538.974.972 2.161 1.462 3.539 1.46z" opacity="1" data-original="#a4d4ff"></path></g></g></svg>