<svg xmlns="http://www.w3.org/2000/svg" version="1.1" xmlns:xlink="http://www.w3.org/1999/xlink" width="100" height="100" x="0" y="0" viewBox="0 0 512 512" style="enable-background:new 0 0 512 512" xml:space="preserve" class=""><g><g fill-rule="evenodd" clip-rule="evenodd"><path fill="#9aa7b6" d="M377.613 53.562h51.694c2.754 0 5 2.246 5 5v74.53c0 2.754-2.246 5-5 5h-51.694a5.01 5.01 0 0 1-5-5v-74.53c0-2.754 2.246-5 5-5zm-294.92 0h51.694c2.754 0 5 2.246 5 5v74.53c0 2.754-2.246 5-5 5H82.693a5.01 5.01 0 0 1-5-5v-74.53a5.01 5.01 0 0 1 5-5z" opacity="1" data-original="#636c77" class=""></path><path fill="#424852" d="M491 458.438H21a5.01 5.01 0 0 1-5-5V112.932c0-2.754 2.246-5 5-5h470c2.754 0 5 2.246 5 5v340.506c0 2.754-2.246 5-5 5z" opacity="1" data-original="#424852" class=""></path><path fill="#9aa7b6" d="M491 458.438H21a5.01 5.01 0 0 1-5-5V162.302h480v291.136c0 2.754-2.246 5-5 5z" opacity="1" data-original="#636c77" class=""></path><path fill="#ffc518" d="m278.45 224.481-17.67 52.588c-.212.632-.115 1.27.276 1.81s.967.831 1.634.827c19.17-.132 33.802-1.58 52.763-1.772a1.961 1.961 0 0 1 1.814 1.115 1.96 1.96 0 0 1-.219 2.118l-85.196 108.846a1.986 1.986 0 0 1-2.513.533 1.987 1.987 0 0 1-.964-2.382l21.516-66.432a1.946 1.946 0 0 0-.285-1.793 1.945 1.945 0 0 0-1.618-.823h-52.957a1.942 1.942 0 0 1-1.591-.788 1.944 1.944 0 0 1-.337-1.744l25.738-93.271a1.977 1.977 0 0 1 1.928-1.468h55.786c.664 0 1.236.293 1.624.833.387.538.483 1.173.271 1.803z" opacity="1" data-original="#fdcd56" class=""></path><circle cx="403.46" cy="243.35" r="55.086" fill="#424852" transform="rotate(-31.72 403.245 243.232)" opacity="1" data-original="#424852" class=""></circle><circle cx="108.54" cy="243.351" r="55.086" fill="#424852" transform="rotate(-67.48 108.62 243.335)" opacity="1" data-original="#424852" class=""></circle><g fill="#636c77"><path d="M77.695 250.351a7 7 0 1 1 0-14h61.69a7 7 0 1 1 0 14zM410.459 274.196a7 7 0 1 1-14 0v-23.845h-23.845a7 7 0 1 1 0-14h23.845v-23.845a7 7 0 1 1 14 0v23.845h23.845a7 7 0 1 1 0 14h-23.845z" fill="#9aa7b6" opacity="1" data-original="#636c77" class=""></path></g></g></g></svg>