<svg xmlns="http://www.w3.org/2000/svg" version="1.1" xmlns:xlink="http://www.w3.org/1999/xlink" width="100" height="100" x="0" y="0" viewBox="0 0 512 512" style="enable-background:new 0 0 512 512" xml:space="preserve" class=""><g><g fill-rule="evenodd" clip-rule="evenodd"><path fill="#9faebe" d="M305.388 16.049c104.039 2.675 187.888 86.524 190.563 190.563.036 1.399-.441 2.616-1.418 3.618s-2.181 1.51-3.581 1.51h-58.697a5 5 0 0 1-4.996-4.814c-2.471-66.361-55.825-119.714-122.186-122.186a5 5 0 0 1-4.814-4.996V21.048c0-1.4.508-2.604 1.511-3.581 1.002-.976 2.219-1.454 3.618-1.418z" opacity="1" data-original="#cad0d7" class=""></path><path fill="#a9b0bb" d="M433.635 68.467a197.008 197.008 0 0 1 9.898 9.898l-48.6 48.6a128.028 128.028 0 0 0-9.898-9.898z" opacity="1" data-original="#a9b0bb" class=""></path><circle cx="178.628" cy="333.372" r="162.58" fill="#e4e8eb" transform="rotate(-45 178.58 333.43)" opacity="1" data-original="#e4e8eb" class=""></circle><circle cx="178.628" cy="333.372" r="97.435" fill="#9faebe" transform="rotate(-73.98 178.714 333.465)" opacity="1" data-original="#cad0d7" class=""></circle><g fill="#f4f6f8"><path d="M108.499 333.372c0 5.939 4.815 10.754 10.754 10.754s10.754-4.815 10.754-10.754-4.815-10.753-10.754-10.753-10.754 4.814-10.754 10.753zm70.128-70.128c-5.939 0-10.753 4.815-10.753 10.754s4.814 10.753 10.753 10.753 10.754-4.815 10.754-10.753c0-5.939-4.814-10.754-10.754-10.754zm0 48.815c-11.771 0-21.313 9.542-21.313 21.313s9.542 21.314 21.313 21.314 21.313-9.542 21.313-21.314c.001-11.771-9.541-21.313-21.313-21.313zm70.128 21.313c0-5.939-4.815-10.753-10.754-10.753s-10.754 4.814-10.754 10.753 4.815 10.754 10.754 10.754c5.94 0 10.754-4.815 10.754-10.754zM178.627 403.5c5.939 0 10.754-4.815 10.754-10.754s-4.815-10.754-10.754-10.754-10.753 4.815-10.753 10.754c0 5.94 4.814 10.754 10.753 10.754zM101.402 456.475a6.99 6.99 0 0 1-3.609-13.507l28.053-7.517a6.991 6.991 0 0 1 3.609 13.507zm71.906 22.122a7 7 0 0 1-9.898-9.898l20.536-20.536a7 7 0 0 1 9.898 9.898zm73.319-16.804a6.99 6.99 0 0 1-8.558 4.949 6.99 6.99 0 0 1-4.949-8.558l7.517-28.053a6.99 6.99 0 1 1 13.507 3.609zm55.103-51.195a6.99 6.99 0 0 1-13.507 3.609l-7.517-28.053a6.99 6.99 0 0 1 13.507-3.609zM110.628 204.951a6.99 6.99 0 0 1 8.558-4.949 6.99 6.99 0 0 1 4.949 8.558l-7.517 28.053a6.99 6.99 0 1 1-13.507-3.609zm-55.103 51.196a6.991 6.991 0 0 1 13.507-3.609l7.517 28.053a6.99 6.99 0 0 1-13.507 3.609zm-22.122 71.906a7 7 0 0 1 9.898-9.898l20.536 20.536a7 7 0 0 1-9.898 9.898zm16.803 73.319a6.99 6.99 0 0 1-4.949-8.558 6.99 6.99 0 0 1 8.558-4.949l28.053 7.517a6.99 6.99 0 0 1 4.949 8.558 6.99 6.99 0 0 1-8.558 4.949z" fill="#f4f6f8" opacity="1" data-original="#f4f6f8" class=""></path></g><path fill="#ffc518" d="M183.756 137.681c104.039 2.675 187.888 86.524 190.563 190.563.036 1.399-.441 2.616-1.418 3.618s-2.181 1.51-3.581 1.51h-58.697a5 5 0 0 1-4.996-4.814c-2.471-66.361-55.825-119.714-122.186-122.186a5 5 0 0 1-4.814-4.996V142.68c0-1.4.508-2.604 1.511-3.581 1.003-.976 2.219-1.454 3.618-1.418z" opacity="1" data-original="#f76c82" class=""></path></g></g></svg>