<svg xmlns="http://www.w3.org/2000/svg" version="1.1" xmlns:xlink="http://www.w3.org/1999/xlink" width="100" height="100" x="0" y="0" viewBox="0 0 512 512" style="enable-background:new 0 0 512 512" xml:space="preserve" class=""><g><g fill-rule="evenodd" clip-rule="evenodd"><path fill="#66d4f1" d="M358.384 324.19c0 66.563-241.055 66.563-241.055 0 0-66.562 53.968-120.523 120.532-120.523 66.563 0 120.523 53.961 120.523 120.523z" opacity="1" data-original="#66d4f1"></path><path fill="#efc7a4" d="M182.154 115.858c0 30.767 24.939 55.706 55.707 55.706 30.767 0 55.706-24.939 55.706-55.706 0-30.758-24.939-55.698-55.706-55.698-30.767.001-55.707 24.94-55.707 55.698z" opacity="1" data-original="#efc7a4"></path><path fill="#f4f6f8" d="M172.027 101.538v.005h131.667v-.005c0-29.663-19.628-54.744-46.609-62.969V31.04c0-8.284-6.756-15.04-15.04-15.04h-8.37c-8.284 0-15.04 6.756-15.04 15.04v7.529c-26.98 8.225-46.608 33.306-46.608 62.969z" opacity="1" data-original="#f4f6f8" class=""></path><g fill="#e4e8eb"><path d="M271.085 44.706a65.418 65.418 0 0 0-14-6.137v27.266a7 7 0 1 0 14 0zm-52.439-14.189c-.006.174-.01.348-.01.523v7.529a65.513 65.513 0 0 0-13.97 6.12v21.145a7 7 0 1 0 14 0V31.04a8.223 8.223 0 0 0-.02-.523zM172.395 108.538a7 7 0 1 1 0-14h130.931a7 7 0 1 1 0 14z" fill="#e4e8eb" opacity="1" data-original="#e4e8eb"></path></g><path fill="#cad0d7" d="m70.461 97.178 14.947-18.363c.966-1.187 1.321-2.596 1.032-4.1L75.938 20.056A4.963 4.963 0 0 0 71.028 16H41.353a4.963 4.963 0 0 0-4.91 4.056L25.94 74.715c-.289 1.503.066 2.913 1.032 4.1L41.92 97.178a4.811 4.811 0 0 1 1.122 3.156v252.039c0 2.754 2.246 5 5 5H64.34a5.01 5.01 0 0 0 4.999-5V100.334c0-1.197.366-2.227 1.122-3.156z" opacity="1" data-original="#cad0d7" class=""></path><path fill="#636c77" d="M91.645 264.658v186.416c0 19.496-15.954 35.454-35.454 35.454s-35.454-15.954-35.454-35.454V264.658a5.009 5.009 0 0 1 5-4.999h60.909a5.008 5.008 0 0 1 4.999 4.999z" opacity="1" data-original="#636c77"></path><path fill="#cad0d7" d="m414.814 99.932-30.72-26.227c-1.152-.984-1.754-2.288-1.754-3.802v-44.71c0-1.938-1.025-3.599-2.757-4.469-1.733-.869-3.677-.698-5.231.46-17.901 13.345-29.495 34.678-29.495 58.722 0 29.457 17.401 54.846 42.483 66.46 1.809.838 2.899 2.543 2.899 4.536v200.722c0 1.994-1.09 3.699-2.899 4.537-25.082 11.614-42.483 37.003-42.483 66.46 0 24.044 11.594 45.377 29.495 58.722 1.554 1.158 3.498 1.329 5.23.46 1.733-.869 2.758-2.53 2.758-4.469v-44.709c0-1.515.601-2.819 1.754-3.802l30.72-26.227a4.969 4.969 0 0 1 6.492 0l30.72 26.227c1.152.984 1.753 2.288 1.753 3.802v44.709c0 1.938 1.025 3.599 2.758 4.469 1.732.869 3.677.698 5.23-.46 17.901-13.345 29.495-34.678 29.495-58.722 0-29.457-17.401-54.846-42.483-66.46-1.809-.838-2.899-2.543-2.899-4.537V150.902c0-1.994 1.09-3.699 2.899-4.536 25.082-11.614 42.483-37.003 42.483-66.46 0-24.044-11.595-45.377-29.496-58.722-1.554-1.159-3.498-1.33-5.231-.46-1.732.869-2.757 2.531-2.757 4.469v44.709c0 1.515-.601 2.819-1.753 3.802l-30.72 26.227a4.967 4.967 0 0 1-6.491.001z" opacity="1" data-original="#cad0d7" class=""></path><path fill="#ffc518" d="M307.44 433.863c-14.666 0-22.025 17.768-11.655 28.138a4.894 4.894 0 0 1 0 6.919l-10.532 10.532a4.892 4.892 0 0 1-6.919 0c-10.37-10.37-28.138-3.011-28.138 11.655a4.892 4.892 0 0 1-4.892 4.892h-14.895a4.892 4.892 0 0 1-4.892-4.892c0-14.684-17.755-22.038-28.138-11.655a4.892 4.892 0 0 1-6.919 0l-10.532-10.532a4.894 4.894 0 0 1 0-6.919c10.37-10.37 3.012-28.138-11.655-28.138a4.892 4.892 0 0 1-4.892-4.892v-14.894a4.892 4.892 0 0 1 4.892-4.892c14.666 0 22.025-17.768 11.655-28.138a4.894 4.894 0 0 1 0-6.919l10.532-10.533a4.894 4.894 0 0 1 6.919 0c10.37 10.37 28.138 3.012 28.138-11.655a4.892 4.892 0 0 1 4.892-4.892h14.895a4.892 4.892 0 0 1 4.892 4.892c0 14.666 17.768 22.025 28.138 11.655a4.894 4.894 0 0 1 6.919 0l10.532 10.533a4.894 4.894 0 0 1 0 6.919c-10.37 10.37-3.011 28.138 11.655 28.138a4.892 4.892 0 0 1 4.892 4.892v14.894a4.891 4.891 0 0 1-4.892 4.892zm-69.584-48.123c-19.763 0-35.784 16.021-35.784 35.784s16.021 35.784 35.784 35.784 35.784-16.021 35.784-35.784-16.02-35.784-35.784-35.784z" opacity="1" data-original="#fdcd56" class=""></path></g></g></svg>