<svg xmlns="http://www.w3.org/2000/svg" version="1.1" xmlns:xlink="http://www.w3.org/1999/xlink" width="100" height="100" x="0" y="0" viewBox="0 0 512 512" style="enable-background:new 0 0 512 512" xml:space="preserve" class=""><g><g fill-rule="evenodd" clip-rule="evenodd"><path fill="#fdcd56" d="M480.235 295.764c-47.263 0-70.977 57.258-37.559 90.676 6.157 6.156 6.157 16.142 0 22.296l-33.941 33.941c-6.156 6.156-16.141 6.156-22.296 0-33.418-33.418-90.676-9.704-90.676 37.558 0 8.71-7.06 15.765-15.765 15.765H232c-8.705 0-15.765-7.055-15.765-15.765 0-47.32-57.216-71.018-90.677-37.558-6.155 6.156-16.14 6.156-22.296 0l-33.94-33.941c-6.157-6.155-6.157-16.14 0-22.296 33.417-33.417 9.703-90.676-37.559-90.676-8.71 0-15.765-7.059-15.765-15.765v-47.997c0-8.706 7.055-15.766 15.765-15.766 47.262 0 70.976-57.258 37.559-90.676-6.157-6.156-6.157-16.14 0-22.296l33.94-33.941c6.156-6.157 16.14-6.157 22.296 0 33.418 33.418 90.677 9.704 90.677-37.559 0-8.71 7.06-15.765 15.765-15.765h47.998c8.705 0 15.765 7.055 15.765 15.765 0 47.263 57.257 70.977 90.676 37.559 6.155-6.157 16.139-6.157 22.296 0l33.941 33.941c6.157 6.156 6.157 16.14 0 22.296-33.418 33.418-9.704 90.676 37.559 90.676 8.71 0 15.765 7.06 15.765 15.766v47.997c.001 8.706-7.054 15.765-15.765 15.765z" opacity="1" data-original="#fdcd56" class=""></path><circle cx="256" cy="256" r="140.697" fill="#f4f6f8" transform="rotate(-45 255.972 256.066)" opacity="1" data-original="#f4f6f8" class=""></circle><path fill="#636c77" d="M489.428 412.534c-19.701 0-29.585 23.867-15.656 37.797a6.573 6.573 0 0 1 0 9.294l-14.148 14.148a6.57 6.57 0 0 1-9.294 0c-13.93-13.929-37.797-4.045-37.797 15.656a6.57 6.57 0 0 1-6.571 6.571h-20.007a6.572 6.572 0 0 1-6.572-6.571c0-19.725-23.849-29.604-37.797-15.656a6.57 6.57 0 0 1-9.294 0l-14.148-14.148a6.573 6.573 0 0 1 0-9.294c13.929-13.93 4.045-37.797-15.656-37.797a6.572 6.572 0 0 1-6.572-6.572v-20.007a6.571 6.571 0 0 1 6.572-6.571c19.701 0 29.585-23.867 15.656-37.797a6.573 6.573 0 0 1 0-9.294l14.148-14.148a6.575 6.575 0 0 1 9.294 0c13.931 13.93 37.797 4.046 37.797-15.656a6.571 6.571 0 0 1 6.572-6.571h20.007a6.571 6.571 0 0 1 6.571 6.571c0 19.701 23.867 29.586 37.797 15.656a6.575 6.575 0 0 1 9.294 0l14.148 14.148a6.573 6.573 0 0 1 0 9.294c-13.929 13.93-4.045 37.797 15.656 37.797a6.571 6.571 0 0 1 6.572 6.571v20.007a6.572 6.572 0 0 1-6.572 6.572z" opacity="1" data-original="#636c77" class=""></path><path fill="#ff5722" d="M394.291 441.033c-14.561-25.104-43.952-60.859-20.971-83.84 12.481-12.481 32.905-12.481 45.386 0 23.143 23.143-7.582 61.109-20.962 83.852a1.954 1.954 0 0 1-1.729.985 1.953 1.953 0 0 1-1.724-.997z" opacity="1" data-original="#f76c82" class=""></path><path fill="#f4f6f8" d="M395.958 387.95c5.508 0 10-4.492 10-10s-4.492-10-10-10-10 4.492-10 10c0 5.507 4.493 10 10 10z" opacity="1" data-original="#f4f6f8" class=""></path><path fill="#cad0d7" d="m288.707 147.975 13.676-1.402c1.522-.156 2.77-.902 3.629-2.169l18.769-27.698a4.962 4.962 0 0 0-.604-6.34L312.78 98.969a4.961 4.961 0 0 0-6.34-.603l-27.698 18.769c-1.267.859-2.013 2.106-2.169 3.629l-1.403 13.676a4.81 4.81 0 0 1-1.438 3.025L160.917 250.28a5.01 5.01 0 0 0 0 7.071l4.879 4.879a5.01 5.01 0 0 0 7.071 0l112.816-112.816a4.802 4.802 0 0 1 3.024-1.439z" opacity="1" data-original="#cad0d7" class=""></path><path fill="#636c77" d="m220.334 235.033-83.446 83.445c-8.859 8.859-23.36 8.861-32.221 0s-8.861-23.361 0-32.221l83.445-83.445a5.009 5.009 0 0 1 7.07 0l25.151 25.151a5.008 5.008 0 0 1 .001 7.07z" opacity="1" data-original="#636c77" class=""></path><path fill="#cad0d7" d="m350.444 211.513-1.857-23.535c-.119-1.51.378-2.857 1.449-3.928l17.074-17.074c1.425-1.425 1.854-3.432 1.137-5.315s-2.373-3.096-4.384-3.212c-12.93-.746-26.109 3.818-35.987 13.697-13.125 13.125-16.87 32.074-11.242 48.526.633 1.849.187 3.771-1.195 5.154l-89.613 89.613c-1.382 1.382-3.304 1.828-5.154 1.195-16.452-5.629-35.401-1.883-48.526 11.242-9.878 9.878-14.443 23.057-13.697 35.987.116 2.012 1.329 3.667 3.212 4.384s3.891.288 5.315-1.137l17.074-17.074c1.071-1.071 2.418-1.568 3.928-1.449l23.535 1.857a4.97 4.97 0 0 1 4.591 4.591l1.857 23.535c.119 1.51-.378 2.857-1.449 3.928l-17.074 17.074c-1.425 1.425-1.854 3.432-1.137 5.315.717 1.882 2.373 3.096 4.384 3.212 12.93.746 26.109-3.818 35.987-13.697 13.125-13.125 16.87-32.074 11.241-48.526-.633-1.849-.187-3.772 1.195-5.154l89.613-89.613c1.382-1.382 3.304-1.828 5.154-1.195 16.452 5.628 35.402 1.883 48.526-11.242 9.879-9.878 14.443-23.057 13.697-35.987-.116-2.012-1.329-3.667-3.212-4.384s-3.89-.288-5.315 1.137l-17.074 17.074c-1.071 1.071-2.418 1.568-3.928 1.449l-23.535-1.857a4.97 4.97 0 0 1-4.59-4.591z" opacity="1" data-original="#cad0d7" class=""></path></g></g></svg>