<svg xmlns="http://www.w3.org/2000/svg" version="1.1" xmlns:xlink="http://www.w3.org/1999/xlink" width="100" height="100" x="0" y="0" viewBox="0 0 512 512" style="enable-background:new 0 0 512 512" xml:space="preserve" class=""><g><g fill-rule="evenodd" clip-rule="evenodd"><path fill="#c6ea94" d="M295.501 456.817c43.5 54.348 115.912 47.05 170.388 9.241a1.94 1.94 0 0 1 1.577-.31 1.934 1.934 0 0 1 1.294.952l6.439 11.152a1.96 1.96 0 0 0 1.899.992 1.96 1.96 0 0 0 1.707-1.295l16.35-43.903a1.943 1.943 0 0 0-.142-1.698 1.94 1.94 0 0 0-1.399-.972l-46.196-7.792a1.961 1.961 0 0 0-1.975.831 1.963 1.963 0 0 0-.09 2.141l7.908 13.697a1.995 1.995 0 0 1-.586 2.64c-44.409 31.03-103.765 36.885-154.714 11.285a1.982 1.982 0 0 0-2.457.534 1.987 1.987 0 0 0-.003 2.505z" opacity="1" data-original="#c6ea94"></path><path fill="#ff5722" d="M216.499 55.183C172.999.836 100.587 8.133 46.111 45.942a1.932 1.932 0 0 1-1.577.31 1.937 1.937 0 0 1-1.294-.952l-6.439-11.152a1.96 1.96 0 0 0-1.899-.992 1.96 1.96 0 0 0-1.707 1.295l-16.35 43.903a1.943 1.943 0 0 0 .142 1.698 1.94 1.94 0 0 0 1.399.972l46.196 7.792a1.961 1.961 0 0 0 1.975-.831 1.963 1.963 0 0 0 .09-2.141l-7.908-13.697a1.996 1.996 0 0 1 .586-2.641C103.734 38.476 163.09 32.62 214.039 58.22c.852.428 1.86.21 2.457-.533a1.983 1.983 0 0 0 .003-2.504z" opacity="1" data-original="#f76c82" class=""></path><path fill="#636c77" d="M469.185 351.298c-11.974 20.739-33.698 31.859-57.074 33.766l-270.143 22.033c-20.149 1.643-40.163-3.055-57.649-13.151-47.939-27.678-64.368-88.99-36.69-136.929 7.59-13.147 18.344-22.936 29.998-32.412L254.929 80.449c26.696-21.705 63.371-27.403 93.774-9.849 14.416 8.323 25.368 21.005 32.716 35.843l87.979 177.654c10.566 21.336 11.935 46.16-.213 67.201z" opacity="1" data-original="#636c77" class=""></path><path fill="#424852" d="m320.276 79.069 17.595 4.036 6.475-6.964c.295.165.59.333.884.502 6.194 3.576 11.716 8.082 16.545 13.297l-4.972 11 10.544 14.686 10.319-1.026 11.339 22.896-7.134 10.449 7.846 16.319 13.032.985 11.326 22.871-7.142 10.457 7.855 16.346 13.05.988 11.307 22.833-7.15 10.466 7.865 16.372 13.067.992 10.208 20.613c.249.502.492 1.006.729 1.512l-8.148 8.38 4.954 17.504 10.152 2.568c.015.585.021 1.17.019 1.754-.021 6.523-1.069 13.021-3.269 19.285l-11.802.062-9.027 15.825 4.682 8.013a59.846 59.846 0 0 1-9.065 6.562c-4.417 2.613-9.176 4.695-14.162 6.25l-8.172-9.02-17.236 3.718-3.04 9.455-26.476 2.159-6.983-10.301-17.615 1.272-5.572 11.49-26.136 2.132-6.987-10.312-17.643 1.271-5.581 11.505-26.093 2.128-6.993-10.324-17.671 1.27-5.59 11.521-26.05 2.125-6.998-10.334-17.699 1.27-5.6 11.536-25.975 2.119-6.861-10.351-17.739 1.096-4.411 8.861a91 91 0 0 1-5.245-1.035 93.126 93.126 0 0 1-17.21-5.745l-.214-12.215-15.569-8.629-8.54 5.133a92.604 92.604 0 0 1-15.396-17.716l6.261-10.637-8.784-15.515-9.603-.081a93.791 93.791 0 0 1-3.57-23.173l10.958-5.471 1.081-17.823-8.296-5.485a93.393 93.393 0 0 1 8.709-20.285l.012.007c.19-.33.383-.657.578-.982l11.908 1.656 10.991-14.108-3.903-9.62c2.831-2.534 5.774-4.998 8.783-7.444l10.741-8.733 11.697 4.607 14.018-11.151-1.915-12.807L136.6 185.65l11.709 4.613 14.041-11.166-1.916-12.825 19.998-16.26 11.719 4.62 14.064-11.182-1.916-12.843 19.965-16.232 11.729 4.626 14.088-11.197-1.917-12.861 11.165-9.078a87.124 87.124 0 0 1 8.101-5.85l9.972 6.799 16.239-7.82.759-10.123a76.106 76.106 0 0 1 7.872-1.249 72.75 72.75 0 0 1 14.457-.087c1.184 3.844 2.366 7.688 3.547 11.534zm92.382 312.968c13.116-1.069 25.792-4.834 36.813-11.354 10.422-6.165 19.344-14.776 25.758-25.884l-.012-.007.012-.02c6.515-11.284 9.52-23.544 9.559-35.866.041-12.967-3.216-25.96-9.127-37.897l-87.979-177.654c-4.053-8.185-9.126-15.762-15.195-22.412-5.821-6.377-12.595-11.93-20.311-16.384-16.187-9.346-33.981-12.649-51.323-10.827-18.06 1.897-35.618 9.347-50.326 21.305L73.225 219.192c-6.024 4.898-11.829 9.892-17.152 15.403-5.459 5.653-10.386 11.82-14.487 18.922l.012.007-.012.02c-14.806 25.645-17.819 54.853-10.722 81.34 7.102 26.505 24.316 50.302 49.955 65.105l.007-.012.02.012c9.402 5.428 19.486 9.398 29.924 11.779 10.366 2.365 21.054 3.173 31.744 2.301z" opacity="1" data-original="#424852" class=""></path><g fill="#a9b0bb"><path d="M193.125 317.572c-11.698 0-17.567 14.172-9.296 22.443a3.901 3.901 0 0 1 0 5.518l-8.401 8.401a3.901 3.901 0 0 1-5.518 0c-8.271-8.271-22.443-2.402-22.443 9.296a3.901 3.901 0 0 1-3.902 3.902h-11.88a3.901 3.901 0 0 1-3.902-3.902c0-11.712-14.161-17.578-22.443-9.296a3.903 3.903 0 0 1-5.519 0l-8.401-8.401a3.903 3.903 0 0 1 0-5.518c8.271-8.271 2.402-22.443-9.296-22.443a3.901 3.901 0 0 1-3.902-3.902v-11.88a3.901 3.901 0 0 1 3.902-3.902c11.698 0 17.567-14.172 9.296-22.443a3.903 3.903 0 0 1 0-5.518l8.401-8.401a3.903 3.903 0 0 1 5.519 0c8.271 8.271 22.443 2.402 22.443-9.296a3.901 3.901 0 0 1 3.902-3.902h11.88a3.901 3.901 0 0 1 3.902 3.902c0 11.698 14.172 17.567 22.443 9.296a3.901 3.901 0 0 1 5.518 0l8.401 8.401a3.901 3.901 0 0 1 0 5.518c-8.271 8.271-2.402 22.443 9.296 22.443a3.901 3.901 0 0 1 3.902 3.902v11.88a3.901 3.901 0 0 1-3.902 3.902zm-55.499-38.382c-15.762 0-28.54 12.778-28.54 28.54s12.778 28.54 28.54 28.54 28.54-12.778 28.54-28.54-12.778-28.54-28.54-28.54zM358.425 178.496c-11.698 0-17.567 14.172-9.296 22.443a3.901 3.901 0 0 1 0 5.518l-8.401 8.4a3.901 3.901 0 0 1-5.518 0c-8.271-8.271-22.443-2.402-22.443 9.296a3.901 3.901 0 0 1-3.902 3.902h-11.88a3.901 3.901 0 0 1-3.902-3.902c0-11.712-14.161-17.577-22.443-9.296a3.901 3.901 0 0 1-5.518 0l-8.401-8.4a3.903 3.903 0 0 1 0-5.518c8.271-8.271 2.402-22.443-9.296-22.443a3.901 3.901 0 0 1-3.902-3.902v-11.88a3.901 3.901 0 0 1 3.902-3.902c11.698 0 17.567-14.172 9.296-22.443a3.904 3.904 0 0 1 0-5.519l8.401-8.401a3.901 3.901 0 0 1 5.518 0c8.271 8.271 22.443 2.402 22.443-9.296a3.901 3.901 0 0 1 3.902-3.902h11.88a3.901 3.901 0 0 1 3.902 3.902c0 11.698 14.171 17.567 22.443 9.296a3.901 3.901 0 0 1 5.518 0l8.401 8.401a3.903 3.903 0 0 1 0 5.519c-8.271 8.271-2.402 22.443 9.296 22.443a3.901 3.901 0 0 1 3.902 3.902v11.88a3.901 3.901 0 0 1-3.902 3.902zm-55.5-38.381c-15.762 0-28.54 12.778-28.54 28.54s12.778 28.54 28.54 28.54 28.54-12.778 28.54-28.54c.001-15.763-12.777-28.54-28.54-28.54zM418.966 302.727c-11.698 0-17.567 14.172-9.296 22.443a3.903 3.903 0 0 1 0 5.518l-8.401 8.4a3.901 3.901 0 0 1-5.518 0c-8.271-8.271-22.443-2.402-22.443 9.296a3.901 3.901 0 0 1-3.902 3.902h-11.88a3.902 3.902 0 0 1-3.902-3.902c0-11.712-14.161-17.578-22.443-9.296a3.901 3.901 0 0 1-5.518 0l-8.401-8.4a3.901 3.901 0 0 1 0-5.518c8.271-8.271 2.402-22.443-9.296-22.443a3.901 3.901 0 0 1-3.902-3.902v-11.88a3.901 3.901 0 0 1 3.902-3.902c11.698 0 17.567-14.172 9.296-22.443a3.901 3.901 0 0 1 0-5.518l8.401-8.401a3.903 3.903 0 0 1 5.518 0c8.271 8.271 22.443 2.402 22.443-9.296a3.902 3.902 0 0 1 3.902-3.902h11.88a3.901 3.901 0 0 1 3.902 3.902c0 11.698 14.172 17.567 22.443 9.296a3.903 3.903 0 0 1 5.518 0l8.401 8.401a3.903 3.903 0 0 1 0 5.518c-8.271 8.271-2.402 22.443 9.296 22.443a3.901 3.901 0 0 1 3.902 3.902v11.88a3.902 3.902 0 0 1-3.902 3.902zm-55.5-38.382c-15.762 0-28.54 12.778-28.54 28.54s12.778 28.54 28.54 28.54 28.54-12.778 28.54-28.54-12.778-28.54-28.54-28.54z" fill="#a9b0bb" opacity="1" data-original="#a9b0bb"></path></g></g></g></svg>